<?xml version="1.0" encoding="UTF-8" standalone="no"?>
<svg width="60px" height="34px" viewBox="0 0 60 34" version="1.1" xmlns="http://www.w3.org/2000/svg" xmlns:xlink="http://www.w3.org/1999/xlink">
    <defs></defs>
    <g id="Page-1" stroke="none" stroke-width="1" fill="none" fill-rule="evenodd">
        <g id="Short-home-page" transform="translate(-107.000000, -60.000000)" fill="#000000">
            <g id="header---all-links" transform="translate(107.000000, 60.000000)">
                <path d="M0,0.00903010033 L0,33.1601338 L3.7976752,33.1601338 L3.7976752,21.059097 L6.39585766,21.4168896 L6.39585766,17.0539465 L3.7976752,16.6268227 L3.7976752,4.32 L60,16.7477258 L60,0 L0,0.00903010033 Z M57.8599406,20.0968896 L54.8937399,19.4305686 L54.8937399,33.18 L59.9192786,33.182107 L59.9236896,30.0417391 L57.8599406,30.2157191 L57.8599406,20.0968896 Z M27.9059554,23.9700602 L24.2050215,12.5376522 L21.0004261,11.8178528 L21.0004261,33.1455452 L23.966727,33.1455452 L23.966727,21.7878863 L27.9059554,33.0781204 L27.9059554,33.1455452 L30.872156,33.1455452 L30.872156,14.0351438 L27.9059554,13.3689231 L27.9059554,23.9700602 Z M40.6800668,24.9576221 L37.0763756,15.4286589 L33.7745375,14.687087 L33.7745375,33.1115017 L36.7407381,33.1115017 L36.7407381,23.0738428 L40.6800668,33.0520033 L40.6800668,33.1115017 L43.6462674,33.1115017 L43.6462674,16.9043779 L40.6800668,16.2381572 L40.6800668,24.9576221 Z M46.3383241,17.5095552 L46.3366199,17.5091538 L46.3366199,20.463301 L46.3383241,20.463602 L46.3383241,30.7707592 L46.3366199,30.7709599 L46.3366199,33.1703579 L52.5801976,33.1703579 L52.5801976,30.2162107 L49.3045248,30.5071806 L49.3045248,27.4589197 L51.887369,27.4589197 L51.887369,24.5049732 L49.3045248,24.5049732 L49.3045248,21.1225987 L52.5801976,21.8503244 L52.5801976,18.9110268 L46.3383241,17.5089532 L46.3383241,17.5095552 Z M18.1358289,11.1744281 L14.7406579,10.411786 L14.7406579,27.5826221 L14.7447682,27.6419197 C14.7447682,28.3312174 14.7644172,29.4514515 14.2115378,29.8324214 C14.0417141,29.9495117 13.8373041,30.0239599 13.2897379,30.0129231 C12.7628232,30.002689 12.5260325,29.8442609 12.3415722,29.6955652 C11.6045333,29.1027893 11.6801219,27.2569365 11.6801219,26.5479732 L11.6866382,26.4733244 L11.6866382,9.72579933 L8.29146721,8.96325753 L8.29146721,26.3322542 C8.29146721,27.0002809 8.12996426,30.004796 9.84143438,31.9128562 C10.6964677,32.8660334 11.8659856,33.3837592 13.2235728,33.4104482 C13.2615676,33.4110502 13.2991614,33.4113512 13.3367552,33.4113512 C14.6719866,33.4113512 15.7880712,32.914495 16.6603476,32.0601472 C18.1138741,30.636301 18.1619942,27.9891773 18.1358289,27.4737592 L18.1358289,11.1744281 Z" id="funnel-logo"></path>
            </g>
        </g>
    </g>
</svg>