<?xml version="1.0" standalone="no"?><!DOCTYPE svg PUBLIC "-//W3C//DTD SVG 1.1//EN" "http://www.w3.org/Graphics/SVG/1.1/DTD/svg11.dtd"><svg width="100%" height="100%" viewBox="0 0 192 192" version="1.1" xmlns="http://www.w3.org/2000/svg" xmlns:xlink="http://www.w3.org/1999/xlink" xml:space="preserve"><path d="M153.894,160.56l-36.462,0l9.183,-58.873l3.612,-23.499c-1.293,4.515 -2.6,8.822 -3.922,12.92c-1.321,4.098 -2.729,8.07 -4.223,11.917l-22.462,57.535l-28.433,0l2.158,-57.619c0.111,-3.345 0.507,-9.087 1.187,-17.227c0.134,-1.227 0.385,-3.735 0.753,-7.526l-5.603,23.833l-14.802,58.539l-37.13,0l40.876,-129.12l43.402,0l-1.421,43.486c-0.101,3.568 -0.332,7.443 -0.694,11.624c-0.363,4.182 -0.839,8.725 -1.43,13.631c2.364,-8.195 4.833,-15.526 7.409,-21.993l18.214,-46.748l43.067,0l-13.279,129.12Z" style="fill:#000;fill-rule:nonzero;"/></svg>
